<svg width="70" height="60" viewBox="0 0 70 60" fill="none" xmlns="http://www.w3.org/2000/svg">
<path d="M46.7085 5.70117C47.1953 5.70117 47.5902 6.09627 47.5903 6.58301C47.5903 7.06987 47.1954 7.46484 46.7085 7.46484C42.5962 7.46495 38.9055 10.2157 37.7339 14.1523C37.6052 14.5864 37.1706 14.848 36.7329 14.7686L36.729 14.7734L36.6372 14.7461C36.1708 14.607 35.9044 14.1162 36.0435 13.6494C37.4072 9.06679 41.6544 5.70127 46.7085 5.70117Z" fill="#0D9BD3" stroke="white" stroke-width="0.3"/>
<path d="M56.9524 42.4384H52.5621C52.1581 42.4384 51.8303 42.1107 51.8303 41.7067C51.8303 41.3027 52.158 40.9749 52.5621 40.9749H56.9524C63.0043 40.9749 67.9283 36.0509 67.9283 29.999C67.9283 23.9471 63.0043 19.023 56.9524 19.023H56.8468C56.6346 19.023 56.4329 18.9311 56.2938 18.7706C56.1548 18.6101 56.0921 18.3974 56.1224 18.1873C56.1877 17.7315 56.2207 17.2737 56.2207 16.8279C56.2207 11.5829 51.953 7.31531 46.7081 7.31531C44.6676 7.31531 42.7217 7.95296 41.0805 9.15978C40.7199 9.42478 40.2077 9.30718 39.9991 8.91047C35.3511 0.0596993 23.2109 -1.12887 16.9169 6.57053C14.2654 9.81417 13.2236 14.0336 14.0584 18.146C14.1504 18.6002 13.8029 19.0236 13.3413 19.0236H13.0481C6.99624 19.0236 2.07217 23.9477 2.07217 29.9996C2.07217 36.0514 6.99624 40.9755 13.0481 40.9755H17.4385C17.8425 40.9755 18.1702 41.3032 18.1702 41.7072C18.1702 42.1113 17.8425 42.439 17.4385 42.439H13.0481C6.18914 42.439 0.608643 36.8585 0.608643 29.9995C0.608643 23.3329 5.88019 17.8742 12.4737 17.5731C11.8544 13.3066 13.0387 9.00295 15.7837 5.64437C22.5224 -2.5996 35.4366 -1.67556 40.8958 7.51707C42.6373 6.42522 44.6302 5.85244 46.7079 5.85244C53.0624 5.85244 58.0978 11.261 57.6572 17.58C64.19 17.9463 69.3915 23.3763 69.3915 29.999C69.3915 36.8585 63.811 42.4384 56.9521 42.4384L56.9524 42.4384Z" fill="#0D9BD3"/>
<path d="M34.9026 22.8496C45.0723 22.8499 53.3459 31.1242 53.3459 41.2939C53.3457 51.4634 45.0722 59.7371 34.9026 59.7373C24.7329 59.7373 16.4585 51.4637 16.4583 41.2939C16.4583 31.1241 24.7326 22.8496 34.9026 22.8496ZM34.9026 24.6143C25.7056 24.6143 18.2229 32.097 18.2229 41.2939C18.2232 50.4908 25.7058 57.9736 34.9026 57.9736C44.0991 57.9734 51.582 50.4905 51.5823 41.2939C51.5823 32.0971 44.0993 24.6145 34.9026 24.6143Z" fill="#0D9BD3" stroke="white" stroke-width="0.3"/>
<path d="M35.2371 34.043C35.6155 34.0432 35.9226 34.351 35.9226 34.7295V48.6572C35.9226 49.0362 35.6154 49.3435 35.2371 49.3438C34.8584 49.3438 34.5505 49.0359 34.5505 48.6572V34.7295C34.5505 34.3509 34.8584 34.043 35.2371 34.043Z" fill="#0D9BD3" stroke="#0D9BD3" stroke-width="0.3"/>
<path d="M34.752 34.2456C35.0196 33.9779 35.454 33.9779 35.7217 34.2456L40.0068 38.5317C40.2746 38.7996 40.2747 39.2336 40.0068 39.5015L40.0059 39.5005C39.872 39.6346 39.697 39.7016 39.5225 39.7017C39.3474 39.7017 39.1708 39.6351 39.0371 39.5015L35.2363 35.6997L31.4355 39.5015C31.168 39.7692 30.7335 39.7691 30.4658 39.5015C30.198 39.2337 30.1982 38.7996 30.4658 38.5317L34.752 34.2456Z" fill="#0D9BD3" stroke="#0D9BD3" stroke-width="0.3"/>
</svg>
